<?xml version="1.0" encoding="utf-8"?>
<!-- Generator: Adobe Illustrator 24.0.1, SVG Export Plug-In . SVG Version: 6.00 Build 0)  -->
<svg version="1.1" id="Layer_1" xmlns="http://www.w3.org/2000/svg" xmlns:xlink="http://www.w3.org/1999/xlink" x="0px" y="0px"
	 viewBox="0 0 1000 298" style="enable-background:new 0 0 1000 298;" xml:space="preserve">
<style type="text/css">
	.st0{fill:none;stroke:#666666;stroke-width:3;stroke-miterlimit:10;}
	.st1{fill:none;stroke:#666666;stroke-width:2;stroke-miterlimit:10;}
</style>
<rect id="outline" x="17.5" y="26.5" transform="matrix(-1 1.653892e-15 -1.653892e-15 -1 1000.004 297.9956)" class="st0" width="965" height="245"/>
<rect id="n016" x="935" y="202" transform="matrix(-1 -1.224647e-16 1.224647e-16 -1 1916.9583 472.9956)" class="st1" width="46.95" height="69"/>
<rect id="n014" x="783" y="141" transform="matrix(-1 -1.224647e-16 1.224647e-16 -1 1718.0255 412.9956)" class="st1" width="152.02" height="131"/>
<rect id="n013a" x="732" y="190" transform="matrix(-1 -1.224647e-16 1.224647e-16 -1 1514.9794 461.9956)" class="st1" width="50.98" height="82"/>
<rect id="n013" x="576" y="141" transform="matrix(-1 -1.224647e-16 1.224647e-16 -1 1308.1106 412.9956)" class="st1" width="156.11" height="131"/>
<rect id="n012b" x="475" y="141" transform="matrix(-1 -1.224647e-16 1.224647e-16 -1 1050.8184 412.9956)" class="st1" width="100.81" height="131"/>
<rect id="n012c" x="395" y="136" transform="matrix(-1 -1.224647e-16 1.224647e-16 -1 817.8183 302.9956)" class="st1" width="27.81" height="31"/>
<rect id="n012a" x="348" y="141" transform="matrix(-1 -1.224647e-16 1.224647e-16 -1 720.8183 299.9956)" class="st1" width="24.81" height="18"/>
<polygon id="n012d" class="st1" points="423,167 423,136 472,136 472,141 474.81,141 474.81,167 "/>
<polygon id="n012" class="st1" points="272,272 272,172 348,172 348,159 395,159 395,167 475,167 475,219 474.81,219 474.81,272 "/>
<rect id="n015" x="935.07" y="141" transform="matrix(-1 -1.224647e-16 1.224647e-16 -1 1917.0927 342.9956)" class="st1" width="46.95" height="61"/>
<rect id="n017" x="885" y="26" transform="matrix(-1 -1.224647e-16 1.224647e-16 -1 1867.0585 128.9956)" class="st1" width="97.05" height="77"/>
<rect id="n018" x="834" y="26" transform="matrix(-1 -1.224647e-16 1.224647e-16 -1 1718.9917 128.9956)" class="st1" width="50.99" height="77"/>
<rect id="n019" x="732" y="26" transform="matrix(-1 -1.224647e-16 1.224647e-16 -1 1566.0327 128.9956)" class="st1" width="102.03" height="77"/>
<rect id="n020" x="577" y="26" transform="matrix(-1 1.142385e-14 -1.142385e-14 -1 1308.9561 128.9956)" class="st1" width="154.95" height="77"/>
<rect id="n021" x="424" y="26" transform="matrix(-1 -1.224647e-16 1.224647e-16 -1 1001.0882 128.9956)" class="st1" width="153.08" height="77"/>
<rect id="n022" x="321.68" y="26" transform="matrix(-1 -1.224647e-16 1.224647e-16 -1 745.685 128.9956)" class="st1" width="102.32" height="77"/>
<rect id="trappe" x="271" y="26" transform="matrix(-1 -1.224647e-16 1.224647e-16 -1 593.004 128.9956)" class="st1" width="51" height="77"/>
<rect id="n025" x="220" y="26" transform="matrix(-1 -1.224647e-16 1.224647e-16 -1 491.004 97.9934)" class="st1" width="51" height="46"/>
<rect id="n024" x="220" y="72.03" transform="matrix(-1 -1.224647e-16 1.224647e-16 -1 491.008 175.0208)" class="st1" width="51" height="30.97"/>
<rect id="n026" x="119" y="26" transform="matrix(-1 -1.224647e-16 1.224647e-16 -1 339.004 128.9956)" class="st1" width="101" height="77"/>
<rect id="n027" x="18" y="26" transform="matrix(-1 -1.224647e-16 1.224647e-16 -1 137.004 128.9956)" class="st1" width="101" height="77"/>
<rect id="room2" x="18" y="141" transform="matrix(-1 -1.224647e-16 1.224647e-16 -1 113.004 412.9956)" class="st1" width="77" height="131"/>
<rect id="room1" x="94" y="141" transform="matrix(-1 -1.224647e-16 1.224647e-16 -1 265.004 412.9956)" class="st1" width="77" height="131"/>
<rect id="n011a" x="171" y="141" transform="matrix(-1 -1.224647e-16 1.224647e-16 -1 443.004 412.9956)" class="st1" width="101" height="131"/>
</svg>
