<?xml version="1.0" encoding="utf-8"?>
<!-- Generator: Adobe Illustrator 24.0.1, SVG Export Plug-In . SVG Version: 6.00 Build 0)  -->
<svg version="1.1" xmlns="http://www.w3.org/2000/svg" xmlns:xlink="http://www.w3.org/1999/xlink" x="0px" y="0px"
	 viewBox="0 0 862 289" style="enable-background:new 0 0 862 289;" xml:space="preserve">
<style type="text/css">
	.st0{fill:none;stroke:#666666;stroke-width:3;stroke-miterlimit:10;}
	.st1{fill:none;stroke:#666666;stroke-width:2;stroke-miterlimit:10;}
</style>
<g id="Layer_1">
	
		<rect id="outlin_e" x="23.93" y="20" transform="matrix(-1 -1.224647e-16 1.224647e-16 -1 862.8624 285)" class="st0" width="815" height="245"/>
	
		<rect id="n226" x="759.93" y="136" transform="matrix(-1 -1.224647e-16 1.224647e-16 -1 1598.9312 401)" class="st1" width="79.07" height="129"/>
	
		<rect id="n228" x="633.93" y="20" transform="matrix(-1 -1.224647e-16 1.224647e-16 -1 1472.8027 119)" class="st1" width="204.94" height="79"/>
	
		<rect id="n230" x="507.93" y="20" transform="matrix(-1 -1.224647e-16 1.224647e-16 -1 1141.8823 119)" class="st1" width="126.02" height="79"/>
	
		<rect id="n231" x="458.93" y="20" transform="matrix(-1 -1.224647e-16 1.224647e-16 -1 966.8191 119)" class="st1" width="48.96" height="79"/>
	
		<rect id="n231b" x="409.83" y="19.5" transform="matrix(-1 -1.224647e-16 1.224647e-16 -1 868.6115 88)" class="st1" width="48.96" height="49"/>
	
		<rect id="n234" x="372.43" y="19.5" transform="matrix(-1 -1.224647e-16 1.224647e-16 -1 782.2587 88)" class="st1" width="37.4" height="49"/>
	
		<rect id="n235" x="335.43" y="19.5" transform="matrix(-1 -1.224647e-16 1.224647e-16 -1 708.2587 88)" class="st1" width="37.4" height="49"/>
	
		<rect id="n236" x="285.43" y="19.5" transform="matrix(-1 -1.224647e-16 1.224647e-16 -1 621.2587 118)" class="st1" width="50.4" height="79"/>
	<polygon id="n237" class="st1" points="235.43,56.5 235.43,19.5 285.83,19.5 285.83,98.5 249.43,98.5 249.43,56.5 	"/>
	<polygon id="n237a" class="st1" points="249.43,56.5 249.43,98.5 185.43,98.5 185.43,19.5 235.43,19.5 235.43,56.5 	"/>
	
		<rect id="n238" x="135.43" y="19.5" transform="matrix(-1 -1.224647e-16 1.224647e-16 -1 321.2586 118)" class="st1" width="50.4" height="79"/>
	
		<rect id="n239" x="24.43" y="19.5" transform="matrix(-1 -1.224647e-16 1.224647e-16 -1 160.2586 118)" class="st1" width="111.4" height="79"/>
	
		<rect id="n231c" x="434.43" y="68.5" transform="matrix(-1 -1.224647e-16 1.224647e-16 -1 893.2587 168)" class="st1" width="24.4" height="31"/>
	
		<rect id="n231a" x="409.43" y="68.5" transform="matrix(-1 -1.224647e-16 1.224647e-16 -1 843.2587 168)" class="st1" width="24.4" height="31"/>
	
		<rect id="n232" x="385.43" y="68.5" transform="matrix(-1 -1.224647e-16 1.224647e-16 -1 795.2587 168)" class="st1" width="24.4" height="31"/>
	
		<rect id="n217" x="383.43" y="136.5" transform="matrix(-1 -1.224647e-16 1.224647e-16 -1 791.2587 305)" class="st1" width="24.4" height="32"/>
	
		<rect id="n216" x="359.43" y="136.5" transform="matrix(-1 -1.224647e-16 1.224647e-16 -1 743.2587 305)" class="st1" width="24.4" height="32"/>
	
		<rect id="n212" x="259.43" y="136.5" transform="matrix(-1 -1.224647e-16 1.224647e-16 -1 569.2587 305)" class="st1" width="50.4" height="32"/>
	
		<rect id="_x32_11a" x="233.43" y="126.5" transform="matrix(-1 -1.224647e-16 1.224647e-16 -1 493.2586 295)" class="st1" width="26.4" height="42"/>
	
		<rect id="n211" x="185.43" y="126.5" transform="matrix(-1 -1.224647e-16 1.224647e-16 -1 419.2586 295)" class="st1" width="48.4" height="42"/>
	
		<rect id="n210" x="158.43" y="135.5" transform="matrix(-1 -1.224647e-16 1.224647e-16 -1 343.2586 304)" class="st1" width="26.4" height="33"/>
	
		<rect id="n210b" x="131.43" y="135.5" transform="matrix(-1 -1.224647e-16 1.224647e-16 -1 289.8623 304)" class="st1" width="27" height="33"/>
	
		<rect id="n225" x="684.93" y="168" transform="matrix(-1 -1.224647e-16 1.224647e-16 -1 1444.5913 433)" class="st1" width="74.73" height="97"/>
	
		<rect id="n224a" x="734.43" y="127.5" transform="matrix(-1 -1.224647e-16 1.224647e-16 -1 1494.0913 295.5)" class="st1" width="25.23" height="40.5"/>
	
		<rect id="n224" x="709.43" y="127.5" transform="matrix(-1 -1.224647e-16 1.224647e-16 -1 1444.0913 295.5)" class="st1" width="25.23" height="40.5"/>
	
		<rect id="n223" x="633.93" y="168" transform="matrix(-1 -1.224647e-16 1.224647e-16 -1 1318.5913 433)" class="st1" width="50.73" height="97"/>
	
		<rect id="n221" x="558.93" y="168" transform="matrix(-1 -1.224647e-16 1.224647e-16 -1 1192.5913 433)" class="st1" width="74.73" height="97"/>
	
		<rect id="n219" x="483.43" y="136.5" transform="matrix(-1 -1.224647e-16 1.224647e-16 -1 1042.0913 401.5)" class="st1" width="75.23" height="128.5"/>
	
		<rect id="n218" x="407.43" y="136.5" transform="matrix(-1 -1.224647e-16 1.224647e-16 -1 891.0913 401.5)" class="st1" width="76.23" height="128.5"/>
	
		<rect id="n215" x="335.43" y="168.5" transform="matrix(-1 -1.224647e-16 1.224647e-16 -1 743.0913 433.5)" class="st1" width="72.23" height="96.5"/>
	
		<rect id="n215a" x="233.43" y="168.5" transform="matrix(-1 -1.224647e-16 1.224647e-16 -1 569.0913 433.5)" class="st1" width="102.23" height="96.5"/>
	
		<rect id="n214" x="157.43" y="168.5" transform="matrix(-1 2.385835e-14 -2.385835e-14 -1 391.0913 433.5)" class="st1" width="76.23" height="96.5"/>
	
		<rect id="n214a" x="131.43" y="168.5" transform="matrix(-1 -1.224647e-16 1.224647e-16 -1 289.0913 433.5)" class="st1" width="26.23" height="96.5"/>
	
		<rect id="n209" x="23.43" y="135.5" transform="matrix(-1 -1.224647e-16 1.224647e-16 -1 154.8624 400.5)" class="st1" width="108" height="129.5"/>
</g>
<g id="Layer_2">
</g>
</svg>
